<svg xmlns="http://www.w3.org/2000/svg" style="display: none;">
  <!-- Typography -->
  <symbol id="text-size" viewBox="0 0 16 16" fill="none">
    <path d="M9.33301 13.3337V4.66699H5.99967V2.66699H14.6663V4.66699H11.333V13.3337H9.33301ZM3.33301 13.3337V8.00033H1.33301V6.00033H7.33301V8.00033H5.33301V13.3337H3.33301Z" fill="currentColor"/>
  </symbol>

  <!-- Contrast -->
  <symbol id="contrast" viewBox="0 0 16 16" fill="none">
    <path d="M5.39967 14.1413C4.58856 13.7913 3.88301 13.3163 3.28301 12.7163C2.68301 12.1163 2.20801 11.4108 1.85801 10.5997C1.50801 9.78856 1.33301 8.9219 1.33301 7.99967C1.33301 7.07745 1.50801 6.21079 1.85801 5.39967C2.20801 4.58856 2.68301 3.88301 3.28301 3.28301C3.88301 2.68301 4.58856 2.20801 5.39967 1.85801C6.21079 1.50801 7.07745 1.33301 7.99967 1.33301C8.9219 1.33301 9.78856 1.50801 10.5997 1.85801C11.4108 2.20801 12.1163 2.68301 12.7163 3.28301C13.3163 3.88301 13.7913 4.58856 14.1413 5.39967C14.4913 6.21079 14.6663 7.07745 14.6663 7.99967C14.6663 8.9219 14.4913 9.78856 14.1413 10.5997C13.7913 11.4108 13.3163 12.1163 12.7163 12.7163C12.1163 13.3163 11.4108 13.7913 10.5997 14.1413C9.78856 14.4913 8.9219 14.6663 7.99967 14.6663C7.07745 14.6663 6.21079 14.4913 5.39967 14.1413ZM8.66634 13.283C9.98856 13.1163 11.0969 12.5358 11.9913 11.5413C12.8858 10.5469 13.333 9.36634 13.333 7.99967C13.333 6.63301 12.8858 5.45245 11.9913 4.45801C11.0969 3.46356 9.98856 2.88301 8.66634 2.71634V13.283Z" fill="currentColor"/>
  </symbol>

  <!-- Arrow Back iOS -->
  <symbol id="arrow-back-ios" viewBox="0 0 16 16" fill="none">
    <path d="M10.6667 14.6663L4 7.99967L10.6667 1.33301L11.85 2.51634L6.36667 7.99967L11.85 13.483L10.6667 14.6663Z" fill="currentColor"/>
  </symbol>

  <!-- Arrow Forward iOS -->
  <symbol id="arrow-forward-ios" viewBox="0 0 16 16" fill="none">
    <path d="M5.35033 14.6663L4.16699 13.483L9.65033 7.99967L4.16699 2.51634L5.35033 1.33301L12.017 7.99967L5.35033 14.6663Z" fill="currentColor"/>
  </symbol>

  <!-- Arrow Left Alt -->
  <symbol id="arrow-left-alt" viewBox="0 0 16 16" fill="none">
    <path d="M6.66602 12L2.66602 8L6.66602 4L7.59935 4.96667L5.23268 7.33333H13.3327V8.66667H5.23268L7.59935 11.0333L6.66602 12Z" fill="currentColor"/>
  </symbol>

  <!-- Arrow Right Alt -->
  <symbol id="arrow-right-alt" viewBox="0 0 16 16" fill="none">
    <path d="M9.33268 12L8.39935 11.0333L10.766 8.66667H2.66602V7.33333H10.766L8.39935 4.96667L9.33268 4L13.3327 8L9.33268 12Z" fill="currentColor"/>
  </symbol>

  <!-- Star -->
  <symbol id="star" viewBox="0 0 16 16" fill="none">
    <path d="M5.89967 11.2163L7.99967 9.94967L10.0997 11.233L9.54967 8.83301L11.3997 7.23301L8.96634 7.01634L7.99967 4.74967L7.03301 6.99967L4.59967 7.21634L6.44967 8.83301L5.89967 11.2163ZM3.88301 13.9997L4.96634 9.31634L1.33301 6.16634L6.13301 5.74967L7.99967 1.33301L9.86634 5.74967L14.6663 6.16634L11.033 9.31634L12.1163 13.9997L7.99967 11.5163L3.88301 13.9997Z" fill="currentColor"/>
  </symbol>

  <!-- Phone -->
  <symbol id="phone" viewBox="0 0 16 16" fill="none">
    <path d="M13.3 14C11.9111 14 10.5389 13.6972 9.18333 13.0917C7.82778 12.4861 6.59444 11.6278 5.48333 10.5167C4.37222 9.40556 3.51389 8.17222 2.90833 6.81667C2.30278 5.46111 2 4.08889 2 2.7C2 2.5 2.06667 2.33333 2.2 2.2C2.33333 2.06667 2.5 2 2.7 2H5.4C5.55556 2 5.69444 2.05278 5.81667 2.15833C5.93889 2.26389 6.01111 2.38889 6.03333 2.53333L6.46667 4.86667C6.48889 5.04444 6.48333 5.19444 6.45 5.31667C6.41667 5.43889 6.35556 5.54444 6.26667 5.63333L4.65 7.26667C4.87222 7.67778 5.13611 8.075 5.44167 8.45833C5.74722 8.84167 6.08333 9.21111 6.45 9.56667C6.79444 9.91111 7.15556 10.2306 7.53333 10.525C7.91111 10.8194 8.31111 11.0889 8.73333 11.3333L10.3 9.76667C10.4 9.66667 10.5306 9.59167 10.6917 9.54167C10.8528 9.49167 11.0111 9.47778 11.1667 9.5L13.4667 9.96667C13.6222 10.0111 13.75 10.0917 13.85 10.2083C13.95 10.325 14 10.4556 14 10.6V13.3C14 13.5 13.9333 13.6667 13.8 13.8C13.6667 13.9333 13.5 14 13.3 14ZM4.01667 6L5.11667 4.9L4.83333 3.33333H3.35C3.40556 3.78889 3.48333 4.23889 3.58333 4.68333C3.68333 5.12778 3.82778 5.56667 4.01667 6ZM9.98333 11.9667C10.4167 12.1556 10.8583 12.3056 11.3083 12.4167C11.7583 12.5278 12.2111 12.6 12.6667 12.6333V11.1667L11.1 10.85L9.98333 11.9667Z" fill="currentColor"/>
  </symbol>

  <!-- Mail -->
  <symbol id="mail" viewBox="0 0 16 16" fill="none">
    <path d="M2.66732 13.3327C2.30065 13.3327 1.98676 13.2021 1.72565 12.941C1.46454 12.6799 1.33398 12.366 1.33398 11.9993V3.99935C1.33398 3.63268 1.46454 3.31879 1.72565 3.05768C1.98676 2.79657 2.30065 2.66602 2.66732 2.66602H13.334C13.7007 2.66602 14.0145 2.79657 14.2757 3.05768C14.5368 3.31879 14.6673 3.63268 14.6673 3.99935V11.9993C14.6673 12.366 14.5368 12.6799 14.2757 12.941C14.0145 13.2021 13.7007 13.3327 13.334 13.3327H2.66732ZM8.00065 8.66602L2.66732 5.33268V11.9993H13.334V5.33268L8.00065 8.66602ZM8.00065 7.33268L13.334 3.99935H2.66732L8.00065 7.33268ZM2.66732 5.33268V3.99935V11.9993V5.33268Z" fill="currentColor"/>
  </symbol>

  <!-- Location -->
  <symbol id="location" viewBox="0 0 16 16" fill="none">
    <path d="M8.94199 7.60898C9.2031 7.34787 9.33366 7.03398 9.33366 6.66732C9.33366 6.30065 9.2031 5.98676 8.94199 5.72565C8.68088 5.46454 8.36699 5.33398 8.00033 5.33398C7.63366 5.33398 7.31977 5.46454 7.05866 5.72565C6.79755 5.98676 6.66699 6.30065 6.66699 6.66732C6.66699 7.03398 6.79755 7.34787 7.05866 7.60898C7.31977 7.8701 7.63366 8.00065 8.00033 8.00065C8.36699 8.00065 8.68088 7.8701 8.94199 7.60898ZM8.00033 12.9007C9.35588 11.6562 10.3614 10.5257 11.017 9.50898C11.6725 8.49232 12.0003 7.58954 12.0003 6.80065C12.0003 5.58954 11.6142 4.59787 10.842 3.82565C10.0698 3.05343 9.12255 2.66732 8.00033 2.66732C6.8781 2.66732 5.93088 3.05343 5.15866 3.82565C4.38644 4.59787 4.00033 5.58954 4.00033 6.80065C4.00033 7.58954 4.3281 8.49232 4.98366 9.50898C5.63921 10.5257 6.64477 11.6562 8.00033 12.9007ZM8.00033 14.6673C6.21144 13.1451 4.87533 11.7312 3.99199 10.4257C3.10866 9.12009 2.66699 7.91176 2.66699 6.80065C2.66699 5.13398 3.2031 3.80621 4.27533 2.81732C5.34755 1.82843 6.58921 1.33398 8.00033 1.33398C9.41144 1.33398 10.6531 1.82843 11.7253 2.81732C12.7975 3.80621 13.3337 5.13398 13.3337 6.80065C13.3337 7.91176 12.892 9.12009 12.0087 10.4257C11.1253 11.7312 9.78921 13.1451 8.00033 14.6673Z" fill="currentColor"/>
  </symbol>

  <!-- Menu -->
  <symbol id="menu" viewBox="0 0 16 16" fill="none">
    <path d="M2 4.66732V3.33398H14V4.66732H2ZM2 12.6673V11.334H14V12.6673H2ZM2 8.66732V7.33398H14V8.66732H2Z" fill="currentColor"/>
  </symbol>

  <!-- Download Circle -->
  <symbol id="download-circle" viewBox="0 0 24 24" fill="none">
    <mask id="download-circle-mask" style="mask-type:alpha" maskUnits="userSpaceOnUse" x="0" y="0" width="24" height="24">
      <rect width="24" height="24" fill="#D9D9D9"/>
    </mask>
    <g mask="url(#download-circle-mask)">
      <path d="M12 16L16 12L14.6 10.6L13 12.2V8H11V12.2L9.4 10.6L8 12L12 16ZM12 22C10.6167 22 9.31667 21.7375 8.1 21.2125C6.88333 20.6875 5.825 19.975 4.925 19.075C4.025 18.175 3.3125 17.1167 2.7875 15.9C2.2625 14.6833 2 13.3833 2 12C2 10.6167 2.2625 9.31667 2.7875 8.1C3.3125 6.88333 4.025 5.825 4.925 4.925C5.825 4.025 6.88333 3.3125 8.1 2.7875C9.31667 2.2625 10.6167 2 12 2C13.3833 2 14.6833 2.2625 15.9 2.7875C17.1167 3.3125 18.175 4.025 19.075 4.925C19.975 5.825 20.6875 6.88333 21.2125 8.1C21.7375 9.31667 22 10.6167 22 12C22 13.3833 21.7375 14.6833 21.2125 15.9C20.6875 17.1167 19.975 18.175 19.075 19.075C18.175 19.975 17.1167 20.6875 15.9 21.2125C14.6833 21.7375 13.3833 22 12 22ZM12 20C14.2333 20 16.125 19.225 17.675 17.675C19.225 16.125 20 14.2333 20 12C20 9.76667 19.225 7.875 17.675 6.325C16.125 4.775 14.2333 4 12 4C9.76667 4 7.875 4.775 6.325 6.325C4.775 7.875 4 9.76667 4 12C4 14.2333 4.775 16.125 6.325 17.675C7.875 19.225 9.76667 20 12 20Z" fill="currentColor"/>
    </g>
  </symbol>

  <!-- Download -->
  <symbol id="download" viewBox="0 0 16 16" fill="none">
    <path d="M8.00033 10.667L4.66699 7.33366L5.60033 6.36699L7.33366 8.10033V2.66699H8.66699V8.10033L10.4003 6.36699L11.3337 7.33366L8.00033 10.667ZM4.00033 13.3337C3.63366 13.3337 3.31977 13.2031 3.05866 12.942C2.79755 12.6809 2.66699 12.367 2.66699 12.0003V10.0003H4.00033V12.0003H12.0003V10.0003H13.3337V12.0003C13.3337 12.367 13.2031 12.6809 12.942 12.942C12.6809 13.2031 12.367 13.3337 12.0003 13.3337H4.00033Z" fill="currentColor"/>
  </symbol>

  <!-- Copy -->
  <symbol id="copy" viewBox="0 0 16 16" fill="none">
    <path d="M6 11.9997C5.63333 11.9997 5.31944 11.8691 5.05833 11.608C4.79722 11.3469 4.66667 11.033 4.66667 10.6663V2.66634C4.66667 2.29967 4.79722 1.98579 5.05833 1.72467C5.31944 1.46356 5.63333 1.33301 6 1.33301H12C12.3667 1.33301 12.6806 1.46356 12.9417 1.72467C13.2028 1.98579 13.3333 2.29967 13.3333 2.66634V10.6663C13.3333 11.033 13.2028 11.3469 12.9417 11.608C12.6806 11.8691 12.3667 11.9997 12 11.9997H6ZM6 10.6663H12V2.66634H6V10.6663ZM3.33333 14.6663C2.96667 14.6663 2.65278 14.5358 2.39167 14.2747C2.13056 14.0136 2 13.6997 2 13.333V3.99967H3.33333V13.333H10.6667V14.6663H3.33333Z" fill="currentColor"/>
  </symbol>

  <!-- Add -->
  <symbol id="add" viewBox="0 0 16 16" fill="none">
    <mask id="add-mask" style="mask-type:alpha" maskUnits="userSpaceOnUse" x="0" y="0" width="16" height="16">
      <rect width="16" height="16" fill="#D9D9D9"/>
    </mask>
    <g mask="url(#add-mask)">
      <path d="M7.33333 14V8.66667H2V7.33333H7.33333V2H8.66667V7.33333H14V8.66667H8.66667V14H7.33333Z" fill="currentColor"/>
    </g>
  </symbol>

  <!-- Arrow Down -->
  <symbol id="arrow-down" viewBox="0 0 16 16" fill="none">
    <mask id="arrow-down-mask" style="mask-type:alpha" maskUnits="userSpaceOnUse" x="0" y="0" width="16" height="16">
      <rect width="16" height="16" fill="#D9D9D9"/>
    </mask>
    <g mask="url(#arrow-down-mask)">
      <path d="M8 10.2663L4 6.26634L4.93333 5.33301L8 8.39967L11.0667 5.33301L12 6.26634L8 10.2663Z" fill="currentColor"/>
    </g>
  </symbol>

  <!-- Arrow Up -->
  <symbol id="arrow-up" viewBox="0 0 16 16" fill="none">
    <mask id="arrow-up-mask" style="mask-type:alpha" maskUnits="userSpaceOnUse" x="0" y="0" width="16" height="16">
      <rect width="16" height="16" fill="#D9D9D9"/>
    </mask>
    <g mask="url(#arrow-up-mask)">
      <path d="M8 7.19967L4.93333 10.2663L4 9.33301L8 5.33301L12 9.33301L11.0667 10.2663L8 7.19967Z" fill="currentColor"/>
    </g>
  </symbol>

  <!-- Close -->
  <symbol id="close" viewBox="0 0 16 16" fill="none">
    <mask id="close-mask" style="mask-type:alpha" maskUnits="userSpaceOnUse" x="0" y="0" width="16" height="16">
      <rect width="16" height="16" fill="#D9D9D9"/>
    </mask>
    <g mask="url(#close-mask)">
      <path d="M4.26634 12.6663L3.33301 11.733L7.06634 7.99967L3.33301 4.26634L4.26634 3.33301L7.99967 7.06634L11.733 3.33301L12.6663 4.26634L8.93301 7.99967L12.6663 11.733L11.733 12.6663L7.99967 8.93301L4.26634 12.6663Z" fill="currentColor"/>
    </g>
  </symbol>

  <!-- Filter -->
  <symbol id="filter" viewBox="0 0 16 16" fill="none">
    <mask id="filter-mask" style="mask-type:alpha" maskUnits="userSpaceOnUse" x="0" y="0" width="16" height="16">
      <rect width="16" height="16" fill="#D9D9D9"/>
    </mask>
    <g mask="url(#filter-mask)">
      <path d="M7.33333 14V10H8.66667V11.3333H14V12.6667H8.66667V14H7.33333ZM2 12.6667V11.3333H6V12.6667H2ZM4.66667 10V8.66667H2V7.33333H4.66667V6H6V10H4.66667ZM7.33333 8.66667V7.33333H14V8.66667H7.33333ZM10 6V2H11.3333V3.33333H14V4.66667H11.3333V6H10ZM2 4.66667V3.33333H8.66667V4.6667H2Z" fill="currentColor"/>
    </g>
  </symbol>

  <!-- LinkedIn -->
  <symbol id="linkedin" viewBox="0 0 16 16" fill="none">
    <path d="M4.62663 3.33302C4.62645 3.68665 4.48581 4.02571 4.23563 4.27564C3.98546 4.52556 3.64625 4.66587 3.29263 4.66569C2.93901 4.66551 2.59994 4.52487 2.35001 4.27469C2.10009 4.02452 1.95978 3.68531 1.95996 3.33169C1.96014 2.97807 2.10078 2.639 2.35096 2.38908C2.60113 2.13915 2.94034 1.99885 3.29396 1.99902C3.64758 1.9992 3.98665 2.13985 4.23657 2.39002C4.4865 2.64019 4.6268 2.9794 4.62663 3.33302ZM4.66663 5.65302H1.99996V13.9997H4.66663V5.65302ZM8.87996 5.65302H6.22663V13.9997H8.85329V9.61969C8.85329 7.17969 12.0333 6.95302 12.0333 9.61969V13.9997H14.6666V8.71302C14.6666 4.59969 9.95996 4.75302 8.85329 6.77302L8.87996 5.65302Z" fill="currentColor"/>
  </symbol>

  <!-- Facebook -->
  <symbol id="facebook" viewBox="0 0 16 16" fill="none">
    <path d="M14.6663 7.99967C14.6663 4.31967 11.6797 1.33301 7.99967 1.33301C4.31967 1.33301 1.33301 4.31967 1.33301 7.99967C1.33301 11.2263 3.62634 13.913 6.66634 14.533V9.99967H5.33301V7.99967H6.66634V6.33301C6.66634 5.04634 7.71301 3.99967 8.99967 3.99967H10.6663V5.99967H9.33301C8.96634 5.99967 8.66634 6.29967 8.66634 6.66634V7.99967H10.6663V9.99967H8.66634V14.633C12.033 14.2997 14.6663 11.4597 14.6663 7.99967Z" fill="currentColor"/>
  </symbol>

  <!-- Instagram -->
  <symbol id="instagram" viewBox="0 0 16 16" fill="none">
    <path d="M5.19967 1.33301H10.7997C12.933 1.33301 14.6663 3.06634 14.6663 5.19967V10.7997C14.6663 11.8252 14.259 12.8087 13.5338 13.5338C12.8087 14.259 11.8252 14.6663 10.7997 14.6663H5.19967C3.06634 14.6663 1.33301 12.933 1.33301 10.7997V5.19967C1.33301 4.17417 1.74039 3.19067 2.46553 2.46553C3.19067 1.74039 4.17417 1.33301 5.19967 1.33301ZM5.06634 2.66634C4.42982 2.66634 3.81937 2.9192 3.36929 3.36929C2.9192 3.81937 2.66634 4.42982 2.66634 5.06634V10.933C2.66634 12.2597 3.73967 13.333 5.06634 13.333H10.933C11.5695 13.333 12.18 13.0802 12.6301 12.6301C13.0802 12.18 13.333 11.5695 13.333 10.933V5.06634C13.333 3.73967 12.2597 2.66634 10.933 2.66634H5.06634ZM11.4997 3.66634C11.7207 3.66634 11.9327 3.75414 12.0889 3.91042C12.2452 4.0667 12.333 4.27866 12.333 4.49967C12.333 4.72069 12.2452 4.93265 12.0889 5.08893C11.9327 5.24521 11.7207 5.33301 11.4997 5.33301C11.2787 5.33301 11.0667 5.24521 10.9104 5.08893C10.7541 4.93265 10.6663 4.72069 10.6663 4.49967C10.6663 4.27866 10.7541 4.0667 10.9104 3.91042C11.0667 3.75414 11.2787 3.66634 11.4997 3.66634ZM7.99967 4.66634C8.88373 4.66634 9.73158 5.01753 10.3567 5.64265C10.9818 6.26777 11.333 7.11562 11.333 7.99967C11.333 8.88373 10.9818 9.73158 10.3567 10.3567C9.73158 10.9818 8.88373 11.333 7.99967 11.333C7.11562 11.333 6.26777 10.9818 5.64265 10.3567C5.01753 9.73158 4.66634 8.88373 4.66634 7.99967C4.66634 7.11562 5.01753 6.26777 5.64265 5.64265C6.26777 5.01753 7.11562 4.66634 7.99967 4.66634ZM7.99967 5.99967C7.46924 5.99967 6.96053 6.21039 6.58546 6.58546C6.21039 6.96053 5.99967 7.46924 5.99967 7.99967C5.99967 8.53011 6.21039 9.03882 6.58546 9.41389C6.96053 9.78896 7.46924 9.99967 7.99967 9.99967C8.53011 9.99967 9.03882 9.78896 9.41389 9.41389C9.78896 9.03882 9.99967 8.53011 9.99967 7.99967C9.99967 7.46924 9.78896 6.96053 9.41389 6.58546C9.03882 6.21039 8.53011 5.99967 7.99967 5.99967Z" fill="currentColor"/>
  </symbol>
</svg>
