<svg xmlns="http://www.w3.org/2000/svg" style="display: none;">
  <!-- Typography -->
  <symbol id="text-size" viewBox="0 0 16 16" fill="none">
    <path d="M9.33301 13.3337V4.66699H5.99967V2.66699H14.6663V4.66699H11.333V13.3337H9.33301ZM3.33301 13.3337V8.00033H1.33301V6.00033H7.33301V8.00033H5.33301V13.3337H3.33301Z" fill="currentColor"/>
  </symbol>

  <!-- Contrast -->
  <symbol id="contrast" viewBox="0 0 16 16" fill="none">
    <path d="M5.39967 14.1413C4.58856 13.7913 3.88301 13.3163 3.28301 12.7163C2.68301 12.1163 2.20801 11.4108 1.85801 10.5997C1.50801 9.78856 1.33301 8.9219 1.33301 7.99967C1.33301 7.07745 1.50801 6.21079 1.85801 5.39967C2.20801 4.58856 2.68301 3.88301 3.28301 3.28301C3.88301 2.68301 4.58856 2.20801 5.39967 1.85801C6.21079 1.50801 7.07745 1.33301 7.99967 1.33301C8.9219 1.33301 9.78856 1.50801 10.5997 1.85801C11.4108 2.20801 12.1163 2.68301 12.7163 3.28301C13.3163 3.88301 13.7913 4.58856 14.1413 5.39967C14.4913 6.21079 14.6663 7.07745 14.6663 7.99967C14.6663 8.9219 14.4913 9.78856 14.1413 10.5997C13.7913 11.4108 13.3163 12.1163 12.7163 12.7163C12.1163 13.3163 11.4108 13.7913 10.5997 14.1413C9.78856 14.4913 8.9219 14.6663 7.99967 14.6663C7.07745 14.6663 6.21079 14.4913 5.39967 14.1413ZM8.66634 13.283C9.98856 13.1163 11.0969 12.5358 11.9913 11.5413C12.8858 10.5469 13.333 9.36634 13.333 7.99967C13.333 6.63301 12.8858 5.45245 11.9913 4.45801C11.0969 3.46356 9.98856 2.88301 8.66634 2.71634V13.283Z" fill="currentColor"/>
  </symbol>

  <!-- Arrow Back iOS -->
  <symbol id="arrow-back-ios" viewBox="0 0 16 16" fill="none">
    <path d="M10.6667 14.6663L4 7.99967L10.6667 1.33301L11.85 2.51634L6.36667 7.99967L11.85 13.483L10.6667 14.6663Z" fill="currentColor"/>
  </symbol>

  <!-- Arrow Forward iOS -->
  <symbol id="arrow-forward-ios" viewBox="0 0 16 16" fill="none">
    <path d="M5.35033 14.6663L4.16699 13.483L9.65033 7.99967L4.16699 2.51634L5.35033 1.33301L12.017 7.99967L5.35033 14.6663Z" fill="currentColor"/>
  </symbol>

  <!-- Arrow Left Alt -->
  <symbol id="arrow-left-alt" viewBox="0 0 16 16" fill="none">
    <path d="M6.66602 12L2.66602 8L6.66602 4L7.59935 4.96667L5.23268 7.33333H13.3327V8.66667H5.23268L7.59935 11.0333L6.66602 12Z" fill="currentColor"/>
  </symbol>

  <!-- Arrow Right Alt -->
  <symbol id="arrow-right-alt" viewBox="0 0 16 16" fill="none">
    <path d="M9.33268 12L8.39935 11.0333L10.766 8.66667H2.66602V7.33333H10.766L8.39935 4.96667L9.33268 4L13.3327 8L9.33268 12Z" fill="currentColor"/>
  </symbol>

  <!-- Star -->
  <symbol id="star" viewBox="0 0 16 16" fill="none">
    <path d="M5.89967 11.2163L7.99967 9.94967L10.0997 11.233L9.54967 8.83301L11.3997 7.23301L8.96634 7.01634L7.99967 4.74967L7.03301 6.99967L4.59967 7.21634L6.44967 8.83301L5.89967 11.2163ZM3.88301 13.9997L4.96634 9.31634L1.33301 6.16634L6.13301 5.74967L7.99967 1.33301L9.86634 5.74967L14.6663 6.16634L11.033 9.31634L12.1163 13.9997L7.99967 11.5163L3.88301 13.9997Z" fill="currentColor"/>
  </symbol>

  <!-- Phone -->
  <symbol id="phone" viewBox="0 0 16 16" fill="none">
    <path d="M13.3 14C11.9111 14 10.5389 13.6972 9.18333 13.0917C7.82778 12.4861 6.59444 11.6278 5.48333 10.5167C4.37222 9.40556 3.51389 8.17222 2.90833 6.81667C2.30278 5.46111 2 4.08889 2 2.7C2 2.5 2.06667 2.33333 2.2 2.2C2.33333 2.06667 2.5 2 2.7 2H5.4C5.55556 2 5.69444 2.05278 5.81667 2.15833C5.93889 2.26389 6.01111 2.38889 6.03333 2.53333L6.46667 4.86667C6.48889 5.04444 6.48333 5.19444 6.45 5.31667C6.41667 5.43889 6.35556 5.54444 6.26667 5.63333L4.65 7.26667C4.87222 7.67778 5.13611 8.075 5.44167 8.45833C5.74722 8.84167 6.08333 9.21111 6.45 9.56667C6.79444 9.91111 7.15556 10.2306 7.53333 10.525C7.91111 10.8194 8.31111 11.0889 8.73333 11.3333L10.3 9.76667C10.4 9.66667 10.5306 9.59167 10.6917 9.54167C10.8528 9.49167 11.0111 9.47778 11.1667 9.5L13.4667 9.96667C13.6222 10.0111 13.75 10.0917 13.85 10.2083C13.95 10.325 14 10.4556 14 10.6V13.3C14 13.5 13.9333 13.6667 13.8 13.8C13.6667 13.9333 13.5 14 13.3 14ZM4.01667 6L5.11667 4.9L4.83333 3.33333H3.35C3.40556 3.78889 3.48333 4.23889 3.58333 4.68333C3.68333 5.12778 3.82778 5.56667 4.01667 6ZM9.98333 11.9667C10.4167 12.1556 10.8583 12.3056 11.3083 12.4167C11.7583 12.5278 12.2111 12.6 12.6667 12.6333V11.1667L11.1 10.85L9.98333 11.9667Z" fill="currentColor"/>
  </symbol>

  <!-- Mail -->
  <symbol id="mail" viewBox="0 0 16 16" fill="none">
    <path d="M2.66732 13.3327C2.30065 13.3327 1.98676 13.2021 1.72565 12.941C1.46454 12.6799 1.33398 12.366 1.33398 11.9993V3.99935C1.33398 3.63268 1.46454 3.31879 1.72565 3.05768C1.98676 2.79657 2.30065 2.66602 2.66732 2.66602H13.334C13.7007 2.66602 14.0145 2.79657 14.2757 3.05768C14.5368 3.31879 14.6673 3.63268 14.6673 3.99935V11.9993C14.6673 12.366 14.5368 12.6799 14.2757 12.941C14.0145 13.2021 13.7007 13.3327 13.334 13.3327H2.66732ZM8.00065 8.66602L2.66732 5.33268V11.9993H13.334V5.33268L8.00065 8.66602ZM8.00065 7.33268L13.334 3.99935H2.66732L8.00065 7.33268ZM2.66732 5.33268V3.99935V11.9993V5.33268Z" fill="currentColor"/>
  </symbol>

  <!-- Location -->
  <symbol id="location" viewBox="0 0 16 16" fill="none">
    <path d="M8.94199 7.60898C9.2031 7.34787 9.33366 7.03398 9.33366 6.66732C9.33366 6.30065 9.2031 5.98676 8.94199 5.72565C8.68088 5.46454 8.36699 5.33398 8.00033 5.33398C7.63366 5.33398 7.31977 5.46454 7.05866 5.72565C6.79755 5.98676 6.66699 6.30065 6.66699 6.66732C6.66699 7.03398 6.79755 7.34787 7.05866 7.60898C7.31977 7.8701 7.63366 8.00065 8.00033 8.00065C8.36699 8.00065 8.68088 7.8701 8.94199 7.60898ZM8.00033 12.9007C9.35588 11.6562 10.3614 10.5257 11.017 9.50898C11.6725 8.49232 12.0003 7.58954 12.0003 6.80065C12.0003 5.58954 11.6142 4.59787 10.842 3.82565C10.0698 3.05343 9.12255 2.66732 8.00033 2.66732C6.8781 2.66732 5.93088 3.05343 5.15866 3.82565C4.38644 4.59787 4.00033 5.58954 4.00033 6.80065C4.00033 7.58954 4.3281 8.49232 4.98366 9.50898C5.63921 10.5257 6.64477 11.6562 8.00033 12.9007ZM8.00033 14.6673C6.21144 13.1451 4.87533 11.7312 3.99199 10.4257C3.10866 9.12009 2.66699 7.91176 2.66699 6.80065C2.66699 5.13398 3.2031 3.80621 4.27533 2.81732C5.34755 1.82843 6.58921 1.33398 8.00033 1.33398C9.41144 1.33398 10.6531 1.82843 11.7253 2.81732C12.7975 3.80621 13.3337 5.13398 13.3337 6.80065C13.3337 7.91176 12.892 9.12009 12.0087 10.4257C11.1253 11.7312 9.78921 13.1451 8.00033 14.6673Z" fill="currentColor"/>
  </symbol>

  <!-- Menu -->
  <symbol id="menu" viewBox="0 0 16 16" fill="none">
    <path d="M2 4.66732V3.33398H14V4.66732H2ZM2 12.6673V11.334H14V12.6673H2ZM2 8.66732V7.33398H14V8.66732H2Z" fill="currentColor"/>
  </symbol>

  <!-- Download Circle -->
  <symbol id="download-circle" viewBox="0 0 24 24" fill="none">
    <mask id="download-circle-mask" style="mask-type:alpha" maskUnits="userSpaceOnUse" x="0" y="0" width="24" height="24">
      <rect width="24" height="24" fill="#D9D9D9"/>
    </mask>
    <g mask="url(#download-circle-mask)">
      <path d="M12 16L16 12L14.6 10.6L13 12.2V8H11V12.2L9.4 10.6L8 12L12 16ZM12 22C10.6167 22 9.31667 21.7375 8.1 21.2125C6.88333 20.6875 5.825 19.975 4.925 19.075C4.025 18.175 3.3125 17.1167 2.7875 15.9C2.2625 14.6833 2 13.3833 2 12C2 10.6167 2.2625 9.31667 2.7875 8.1C3.3125 6.88333 4.025 5.825 4.925 4.925C5.825 4.025 6.88333 3.3125 8.1 2.7875C9.31667 2.2625 10.6167 2 12 2C13.3833 2 14.6833 2.2625 15.9 2.7875C17.1167 3.3125 18.175 4.025 19.075 4.925C19.975 5.825 20.6875 6.88333 21.2125 8.1C21.7375 9.31667 22 10.6167 22 12C22 13.3833 21.7375 14.6833 21.2125 15.9C20.6875 17.1167 19.975 18.175 19.075 19.075C18.175 19.975 17.1167 20.6875 15.9 21.2125C14.6833 21.7375 13.3833 22 12 22ZM12 20C14.2333 20 16.125 19.225 17.675 17.675C19.225 16.125 20 14.2333 20 12C20 9.76667 19.225 7.875 17.675 6.325C16.125 4.775 14.2333 4 12 4C9.76667 4 7.875 4.775 6.325 6.325C4.775 7.875 4 9.76667 4 12C4 14.2333 4.775 16.125 6.325 17.675C7.875 19.225 9.76667 20 12 20Z" fill="currentColor"/>
    </g>
  </symbol>

  <!-- Download -->
  <symbol id="download" viewBox="0 0 16 16" fill="none">
    <path d="M8.00033 10.667L4.66699 7.33366L5.60033 6.36699L7.33366 8.10033V2.66699H8.66699V8.10033L10.4003 6.36699L11.3337 7.33366L8.00033 10.667ZM4.00033 13.3337C3.63366 13.3337 3.31977 13.2031 3.05866 12.942C2.79755 12.6809 2.66699 12.367 2.66699 12.0003V10.0003H4.00033V12.0003H12.0003V10.0003H13.3337V12.0003C13.3337 12.367 13.2031 12.6809 12.942 12.942C12.6809 13.2031 12.367 13.3337 12.0003 13.3337H4.00033Z" fill="currentColor"/>
  </symbol>

  <!-- Copy -->
  <symbol id="copy" viewBox="0 0 16 16" fill="none">
    <path d="M6 11.9997C5.63333 11.9997 5.31944 11.8691 5.05833 11.608C4.79722 11.3469 4.66667 11.033 4.66667 10.6663V2.66634C4.66667 2.29967 4.79722 1.98579 5.05833 1.72467C5.31944 1.46356 5.63333 1.33301 6 1.33301H12C12.3667 1.33301 12.6806 1.46356 12.9417 1.72467C13.2028 1.98579 13.3333 2.29967 13.3333 2.66634V10.6663C13.3333 11.033 13.2028 11.3469 12.9417 11.608C12.6806 11.8691 12.3667 11.9997 12 11.9997H6ZM6 10.6663H12V2.66634H6V10.6663ZM3.33333 14.6663C2.96667 14.6663 2.65278 14.5358 2.39167 14.2747C2.13056 14.0136 2 13.6997 2 13.333V3.99967H3.33333V13.333H10.6667V14.6663H3.33333Z" fill="currentColor"/>
  </symbol>

  <!-- Add -->
  <symbol id="add" viewBox="0 0 16 16" fill="none">
    <mask id="add-mask" style="mask-type:alpha" maskUnits="userSpaceOnUse" x="0" y="0" width="16" height="16">
      <rect width="16" height="16" fill="#D9D9D9"/>
    </mask>
    <g mask="url(#add-mask)">
      <path d="M7.33333 14V8.66667H2V7.33333H7.33333V2H8.66667V7.33333H14V8.66667H8.66667V14H7.33333Z" fill="currentColor"/>
    </g>
  </symbol>

  <!-- Arrow Down -->
  <symbol id="arrow-down" viewBox="0 0 16 16" fill="none">
    <mask id="arrow-down-mask" style="mask-type:alpha" maskUnits="userSpaceOnUse" x="0" y="0" width="16" height="16">
      <rect width="16" height="16" fill="#D9D9D9"/>
    </mask>
    <g mask="url(#arrow-down-mask)">
      <path d="M8 10.2663L4 6.26634L4.93333 5.33301L8 8.39967L11.0667 5.33301L12 6.26634L8 10.2663Z" fill="currentColor"/>
    </g>
  </symbol>

  <!-- Arrow Up -->
  <symbol id="arrow-up" viewBox="0 0 16 16" fill="none">
    <mask id="arrow-up-mask" style="mask-type:alpha" maskUnits="userSpaceOnUse" x="0" y="0" width="16" height="16">
      <rect width="16" height="16" fill="#D9D9D9"/>
    </mask>
    <g mask="url(#arrow-up-mask)">
      <path d="M8 7.19967L4.93333 10.2663L4 9.33301L8 5.33301L12 9.33301L11.0667 10.2663L8 7.19967Z" fill="currentColor"/>
    </g>
  </symbol>

  <!-- Close -->
  <symbol id="close" viewBox="0 0 16 16" fill="none">
    <mask id="close-mask" style="mask-type:alpha" maskUnits="userSpaceOnUse" x="0" y="0" width="16" height="16">
      <rect width="16" height="16" fill="#D9D9D9"/>
    </mask>
    <g mask="url(#close-mask)">
      <path d="M4.26634 12.6663L3.33301 11.733L7.06634 7.99967L3.33301 4.26634L4.26634 3.33301L7.99967 7.06634L11.733 3.33301L12.6663 4.26634L8.93301 7.99967L12.6663 11.733L11.733 12.6663L7.99967 8.93301L4.26634 12.6663Z" fill="currentColor"/>
    </g>
  </symbol>

  <!-- Filter -->
  <symbol id="filter" viewBox="0 0 16 16" fill="none">
    <mask id="filter-mask" style="mask-type:alpha" maskUnits="userSpaceOnUse" x="0" y="0" width="16" height="16">
      <rect width="16" height="16" fill="#D9D9D9"/>
    </mask>
    <g mask="url(#filter-mask)">
      <path d="M7.33333 14V10H8.66667V11.3333H14V12.6667H8.66667V14H7.33333ZM2 12.6667V11.3333H6V12.6667H2ZM4.66667 10V8.66667H2V7.33333H4.66667V6H6V10H4.66667ZM7.33333 8.66667V7.33333H14V8.66667H7.33333ZM10 6V2H11.3333V3.33333H14V4.66667H11.3333V6H10ZM2 4.66667V3.33333H8.66667V4.6667H2Z" fill="currentColor"/>
    </g>
  </symbol>

  <!-- LinkedIn -->
  <symbol id="linkedin" viewBox="0 0 16 16" fill="none">
    <path d="M4.62663 3.33302C4.62645 3.68665 4.48581 4.02571 4.23563 4.27564C3.98546 4.52556 3.64625 4.66587 3.29263 4.66569C2.93901 4.66551 2.59994 4.52487 2.35001 4.27469C2.10009 4.02452 1.95978 3.68531 1.95996 3.33169C1.96014 2.97807 2.10078 2.639 2.35096 2.38908C2.60113 2.13915 2.94034 1.99885 3.29396 1.99902C3.64758 1.9992 3.98665 2.13985 4.23657 2.39002C4.4865 2.64019 4.6268 2.9794 4.62663 3.33302ZM4.66663 5.65302H1.99996V13.9997H4.66663V5.65302ZM8.87996 5.65302H6.22663V13.9997H8.85329V9.61969C8.85329 7.17969 12.0333 6.95302 12.0333 9.61969V13.9997H14.6666V8.71302C14.6666 4.59969 9.95996 4.75302 8.85329 6.77302L8.87996 5.65302Z" fill="currentColor"/>
  </symbol>

  <!-- Facebook -->
  <symbol id="facebook" viewBox="0 0 16 16" fill="none">
    <path d="M14.6663 7.99967C14.6663 4.31967 11.6797 1.33301 7.99967 1.33301C4.31967 1.33301 1.33301 4.31967 1.33301 7.99967C1.33301 11.2263 3.62634 13.913 6.66634 14.533V9.99967H5.33301V7.99967H6.66634V6.33301C6.66634 5.04634 7.71301 3.99967 8.99967 3.99967H10.6663V5.99967H9.33301C8.96634 5.99967 8.66634 6.29967 8.66634 6.66634V7.99967H10.6663V9.99967H8.66634V14.633C12.033 14.2997 14.6663 11.4597 14.6663 7.99967Z" fill="currentColor"/>
  </symbol>

  <!-- Instagram -->
  <symbol id="instagram" viewBox="0 0 16 16" fill="none">
    <path d="M5.19967 1.33301H10.7997C12.933 1.33301 14.6663 3.06634 14.6663 5.19967V10.7997C14.6663 11.8252 14.259 12.8087 13.5338 13.5338C12.8087 14.259 11.8252 14.6663 10.7997 14.6663H5.19967C3.06634 14.6663 1.33301 12.933 1.33301 10.7997V5.19967C1.33301 4.17417 1.74039 3.19067 2.46553 2.46553C3.19067 1.74039 4.17417 1.33301 5.19967 1.33301ZM5.06634 2.66634C4.42982 2.66634 3.81937 2.9192 3.36929 3.36929C2.9192 3.81937 2.66634 4.42982 2.66634 5.06634V10.933C2.66634 12.2597 3.73967 13.333 5.06634 13.333H10.933C11.5695 13.333 12.18 13.0802 12.6301 12.6301C13.0802 12.18 13.333 11.5695 13.333 10.933V5.06634C13.333 3.73967 12.2597 2.66634 10.933 2.66634H5.06634ZM11.4997 3.66634C11.7207 3.66634 11.9327 3.75414 12.0889 3.91042C12.2452 4.0667 12.333 4.27866 12.333 4.49967C12.333 4.72069 12.2452 4.93265 12.0889 5.08893C11.9327 5.24521 11.7207 5.33301 11.4997 5.33301C11.2787 5.33301 11.0667 5.24521 10.9104 5.08893C10.7541 4.93265 10.6663 4.72069 10.6663 4.49967C10.6663 4.27866 10.7541 4.0667 10.9104 3.91042C11.0667 3.75414 11.2787 3.66634 11.4997 3.66634ZM7.99967 4.66634C8.88373 4.66634 9.73158 5.01753 10.3567 5.64265C10.9818 6.26777 11.333 7.11562 11.333 7.99967C11.333 8.88373 10.9818 9.73158 10.3567 10.3567C9.73158 10.9818 8.88373 11.333 7.99967 11.333C7.11562 11.333 6.26777 10.9818 5.64265 10.3567C5.01753 9.73158 4.66634 8.88373 4.66634 7.99967C4.66634 7.11562 5.01753 6.26777 5.64265 5.64265C6.26777 5.01753 7.11562 4.66634 7.99967 4.66634ZM7.99967 5.99967C7.46924 5.99967 6.96053 6.21039 6.58546 6.58546C6.21039 6.96053 5.99967 7.46924 5.99967 7.99967C5.99967 8.53011 6.21039 9.03882 6.58546 9.41389C6.96053 9.78896 7.46924 9.99967 7.99967 9.99967C8.53011 9.99967 9.03882 9.78896 9.41389 9.41389C9.78896 9.03882 9.99967 8.53011 9.99967 7.99967C9.99967 7.46924 9.78896 6.96053 9.41389 6.58546C9.03882 6.21039 8.53011 5.99967 7.99967 5.99967Z" fill="currentColor"/>
  </symbol>

  <!-- Match Case -->
  <symbol id="match-case" viewBox="0 0 16 16" fill="none">
    <mask id="match-case-mask" style="mask-type:alpha" maskUnits="userSpaceOnUse" x="0" y="0" width="16" height="16">
      <rect width="16" height="16" fill="#D9D9D9"/>
    </mask>
    <g mask="url(#match-case-mask)">
      <path d="M2.18359 11.8001L4.93359 4.4668H6.25026L9.00026 11.8001H7.73359L7.08359 9.93346H4.11693L3.45026 11.8001H2.18359ZM4.50026 8.8668H6.68359L5.61693 5.83346H5.55026L4.50026 8.8668ZM11.0836 11.9668C10.5169 11.9668 10.0669 11.814 9.73359 11.5085C9.40026 11.2029 9.23359 10.8001 9.23359 10.3001C9.23359 9.81124 9.42526 9.40846 9.80859 9.0918C10.1919 8.77513 10.6836 8.6168 11.2836 8.6168C11.5392 8.6168 11.7891 8.63902 12.0336 8.68346C12.278 8.72791 12.4891 8.78902 12.6669 8.8668V8.6668C12.6669 8.34457 12.553 8.08346 12.3253 7.88346C12.0975 7.68346 11.7947 7.58346 11.4169 7.58346C11.1614 7.58346 10.928 7.63624 10.7169 7.7418C10.5058 7.84735 10.3225 8.00013 10.1669 8.20013L9.38359 7.6168C9.65026 7.29457 9.95304 7.05569 10.2919 6.90013C10.6308 6.74457 11.0114 6.6668 11.4336 6.6668C12.2003 6.6668 12.7725 6.84735 13.1503 7.20846C13.528 7.56957 13.7169 8.11124 13.7169 8.83346V11.8001H12.6669V11.1835H12.6003C12.4447 11.439 12.2336 11.6335 11.9669 11.7668C11.7003 11.9001 11.4058 11.9668 11.0836 11.9668ZM11.2836 11.0668C11.6725 11.0668 12.003 10.9335 12.2753 10.6668C12.5475 10.4001 12.6836 10.089 12.6836 9.73346C12.528 9.64457 12.3419 9.57513 12.1253 9.52513C11.9086 9.47513 11.6947 9.45013 11.4836 9.45013C11.128 9.45013 10.8503 9.52791 10.6503 9.68346C10.4503 9.83902 10.3503 10.0446 10.3503 10.3001C10.3503 10.5224 10.4391 10.7057 10.6169 10.8501C10.7947 10.9946 11.0169 11.0668 11.2836 11.0668Z" fill="currentColor"/>
    </g>
  </symbol>

  <!-- LinkedIn (Alternative) -->
  <symbol id="linkedin-alt" viewBox="0 0 16 16" fill="none">
    <path d="M12.6667 2C13.0203 2 13.3594 2.14048 13.6095 2.39052C13.8595 2.64057 14 2.97971 14 3.33333V12.6667C14 13.0203 13.8595 13.3594 13.6095 13.6095C13.3594 13.8595 13.0203 14 12.6667 14H3.33333C2.97971 14 2.64057 13.8595 2.39052 13.6095C2.14048 13.3594 2 13.0203 2 12.6667V3.33333C2 2.97971 2.14048 2.64057 2.39052 2.39052C2.64057 2.14048 2.97971 2 3.33333 2H12.6667ZM12.3333 12.3333V8.8C12.3333 8.2236 12.1044 7.6708 11.6968 7.26322C11.2892 6.85564 10.7364 6.62667 10.16 6.62667C9.59333 6.62667 8.93333 6.97333 8.61333 7.49333V6.75333H6.75333V12.3333H8.61333V9.04667C8.61333 8.53333 9.02667 8.11333 9.54 8.11333C9.78754 8.11333 10.0249 8.21167 10.2 8.3867C10.375 8.56173 10.4733 8.79913 10.4733 9.04667V12.3333H12.3333ZM4.58667 5.70667C4.88371 5.70667 5.16859 5.58867 5.37863 5.37863C5.58867 5.16859 5.70667 4.88371 5.70667 4.58667C5.70667 3.96667 5.20667 3.46 4.58667 3.46C4.28786 3.46 4.00128 3.5787 3.78999 3.78999C3.5787 4.00128 3.46 4.28786 3.46 4.58667C3.46 5.20667 3.96667 5.70667 4.58667 5.70667ZM5.51333 12.3333V6.75333H3.66667V12.3333H5.51333Z" fill="currentColor"/>
  </symbol>

  <!-- TikTok -->
  <symbol id="tiktok" viewBox="0 0 16 16" fill="none">
    <path fill-rule="evenodd" clip-rule="evenodd" d="M3.33366 0.666992C2.62641 0.666992 1.94814 0.947944 1.44804 1.44804C0.947944 1.94814 0.666992 2.62641 0.666992 3.33366V12.667C0.666992 13.3742 0.947944 14.0525 1.44804 14.5526C1.94814 15.0527 2.62641 15.3337 3.33366 15.3337H12.667C13.3742 15.3337 14.0525 15.0527 14.5526 14.5526C15.0527 14.0525 15.3337 13.3742 15.3337 12.667V3.33366C15.3337 2.62641 15.0527 1.94814 14.5526 1.44804C14.0525 0.947944 13.3742 0.666992 12.667 0.666992H3.33366ZM8.22699 3.00033H9.81833C9.81833 4.06699 10.7197 5.27366 12.0917 5.27366V6.86433C11.147 6.79899 10.3397 6.64433 9.81833 6.18233V10.273C9.81833 11.4097 8.91966 13.0003 6.86433 13.0003C4.35366 13.0003 3.90966 10.727 3.90966 10.0457C3.90966 9.36433 4.30966 7.09099 7.09099 7.09099V8.68233C6.36366 8.52833 5.50033 9.13633 5.50033 10.0457C5.50033 11.1823 6.18233 11.4097 6.86433 11.4097C7.54633 11.4097 8.22766 10.7277 8.22766 10.0457L8.22699 3.00033Z" fill="currentColor"/>
  </symbol>

  <!-- Educational Institution -->
  <symbol id="edu-institution" viewBox="0 0 16 16" fill="none">
    <path d="M8.00033 14L3.33366 11.4667V7.46667L0.666992 6L8.00033 2L15.3337 6V11.3333H14.0003V6.73333L12.667 7.46667V11.4667L8.00033 14ZM8.00033 8.46667L12.567 6L8.00033 3.53333L3.43366 6L8.00033 8.46667ZM8.00033 12.4833L11.3337 10.6833V8.16667L8.00033 10L4.66699 8.16667V10.6833L8.00033 12.4833Z" fill="currentColor"/>
  </symbol>

  <!-- Volunteer -->
  <symbol id="volunteer" viewBox="0 0 16 16" fill="none">
    <path d="M10.667 8.66634L7.90033 5.96634C7.55588 5.63301 7.26421 5.26356 7.02533 4.85801C6.78644 4.45245 6.66699 4.01079 6.66699 3.53301C6.66699 2.9219 6.88088 2.40245 7.30866 1.97467C7.73644 1.5469 8.25588 1.33301 8.86699 1.33301C9.22255 1.33301 9.55588 1.40801 9.86699 1.55801C10.1781 1.70801 10.4448 1.91079 10.667 2.16634C10.8892 1.91079 11.1559 1.70801 11.467 1.55801C11.7781 1.40801 12.1114 1.33301 12.467 1.33301C13.0781 1.33301 13.5975 1.5469 14.0253 1.97467C14.4531 2.40245 14.667 2.9219 14.667 3.53301C14.667 4.01079 14.5503 4.45245 14.317 4.85801C14.0837 5.26356 13.7948 5.63301 13.4503 5.96634L10.667 8.66634ZM10.667 6.79967L12.4837 5.01634C12.6948 4.80523 12.8892 4.58023 13.067 4.34134C13.2448 4.10245 13.3337 3.83301 13.3337 3.53301C13.3337 3.28856 13.2503 3.08301 13.0837 2.91634C12.917 2.74967 12.7114 2.66634 12.467 2.66634C12.3114 2.66634 12.1642 2.6969 12.0253 2.75801C11.8864 2.81912 11.767 2.91079 11.667 3.03301L10.667 4.23301L9.66699 3.03301C9.56699 2.91079 9.44755 2.81912 9.30866 2.75801C9.16977 2.6969 9.02255 2.66634 8.86699 2.66634C8.62255 2.66634 8.41699 2.74967 8.25033 2.91634C8.08366 3.08301 8.00033 3.28856 8.00033 3.53301C8.00033 3.83301 8.08921 4.10245 8.26699 4.34134C8.44477 4.58023 8.63921 4.80523 8.85033 5.01634L10.667 6.79967ZM4.66699 12.333L9.30033 13.5997L13.267 12.3663C13.2114 12.2663 13.1309 12.1802 13.0253 12.108C12.9198 12.0358 12.8003 11.9997 12.667 11.9997H9.30033C9.00033 11.9997 8.76144 11.9886 8.58366 11.9663C8.40588 11.9441 8.22255 11.8997 8.03366 11.833L6.48366 11.3163L6.85033 10.0163L8.20033 10.4663C8.38921 10.5219 8.61144 10.5663 8.86699 10.5997C9.12255 10.633 9.50033 10.6552 10.0003 10.6663C10.0003 10.5441 9.96421 10.4275 9.89199 10.3163C9.81977 10.2052 9.73366 10.133 9.63366 10.0997L5.73366 8.66634H4.66699V12.333ZM0.666992 14.6663V7.33301H5.73366C5.81144 7.33301 5.88921 7.34134 5.96699 7.35801C6.04477 7.37467 6.11699 7.39412 6.18366 7.41634L10.1003 8.86634C10.467 8.99967 10.7642 9.23301 10.992 9.56634C11.2198 9.89967 11.3333 10.2663 11.3333 10.6663H12.667C13.2225 10.6663 13.6948 10.8497 14.0837 11.2163C14.4725 11.583 14.667 12.0663 14.667 12.6663V13.333L9.33366 14.9997L4.66699 13.6997V14.6663H0.666992ZM2.00033 13.333H3.33366V8.66634H2.00033V13.333Z" fill="currentColor"/>
  </symbol>

  <!-- Educator -->
  <symbol id="educator" viewBox="0 0 16 16" fill="none">
    <path d="M4 14.6663V11.7997C3.36667 11.2219 2.875 10.5469 2.525 9.77467C2.175 9.00245 2 8.18856 2 7.33301C2 5.66634 2.58333 4.24967 3.75 3.08301C4.91667 1.91634 6.33333 1.33301 8 1.33301C9.38889 1.33301 10.6194 1.74134 11.6917 2.55801C12.7639 3.37467 13.4611 4.43856 13.7833 5.74967L14.65 9.16634C14.7056 9.37745 14.6667 9.56912 14.5333 9.74134C14.4 9.91356 14.2222 9.99967 14 9.99967H12.6667V11.9997C12.6667 12.3663 12.5361 12.6802 12.275 12.9413C12.0139 13.2025 11.7 13.333 11.3333 13.333H10V14.6663H8.66667V11.9997H11.3333V8.66634H13.1333L12.5 6.08301C12.2444 5.0719 11.7 4.24967 10.8667 3.61634C10.0333 2.98301 9.07778 2.66634 8 2.66634C6.71111 2.66634 5.61111 3.11634 4.7 4.01634C3.78889 4.91634 3.33333 6.01079 3.33333 7.29967C3.33333 7.96634 3.46944 8.59967 3.74167 9.19967C4.01389 9.79967 4.4 10.333 4.9 10.7997L5.33333 11.1997V14.6663H4ZM7.33333 9.99967H8.66667L8.76667 9.16634C8.85556 9.13301 8.93611 9.09412 9.00833 9.04967C9.08056 9.00523 9.14444 8.95523 9.2 8.89967L9.96667 9.23301L10.6333 8.09967L9.96667 7.59967C9.98889 7.51079 10 7.4219 10 7.33301C10 7.24412 9.98889 7.15523 9.96667 7.06634L10.6333 6.56634L9.96667 5.43301L9.2 5.76634C9.14444 5.71079 9.08056 5.66079 9.00833 5.61634C8.93611 5.5719 8.85556 5.53301 8.76667 5.49967L8.66667 4.66634H7.33333L7.23333 5.49967C7.14444 5.53301 7.06389 5.5719 6.99167 5.61634C6.91944 5.66079 6.85556 5.71079 6.8 5.76634L6.03333 5.43301L5.36667 6.56634L6.03333 7.06634C6.01111 7.15523 6 7.24412 6 7.33301C6 7.4219 6.01111 7.51079 6.03333 7.59967L5.36667 8.09967L6.03333 9.23301L6.8 8.89967C6.85556 8.95523 6.91944 9.00523 6.99167 9.04967C7.06389 9.09412 7.14444 9.13301 7.23333 9.16634L7.33333 9.99967ZM7.29167 8.04134C7.09722 7.8469 7 7.61079 7 7.33301C7 7.05523 7.09722 6.81912 7.29167 6.62467C7.48611 6.43023 7.72222 6.33301 8 6.33301C8.27778 6.33301 8.51389 6.43023 8.70833 6.62467C8.90278 6.81912 9 7.05523 9 7.33301C9 7.61079 8.90278 7.8469 8.70833 8.04134C8.51389 8.23579 8.27778 8.33301 8 8.33301C7.72222 8.33301 7.48611 8.23579 7.29167 8.04134Z" fill="currentColor"/>
  </symbol>

  <!-- Search -->
  <symbol id="search" viewBox="0 0 16 16" fill="none">
    <path d="M13.0667 14L8.86667 9.8C8.53333 10.0667 8.15 10.2778 7.71667 10.4333C7.28333 10.5889 6.82222 10.6667 6.33333 10.6667C5.12222 10.6667 4.09722 10.2472 3.25833 9.40833C2.41944 8.56944 2 7.54444 2 6.33333C2 5.12222 2.41944 4.09722 3.25833 3.25833C4.09722 2.41944 5.12222 2 6.33333 2C7.54444 2 8.56944 2.41944 9.40833 3.25833C10.2472 4.09722 10.6667 5.12222 10.6667 6.33333C10.6667 6.82222 10.5889 7.28333 10.4333 7.71667C10.2778 8.15 10.0667 8.53333 9.8 8.86667L14 13.0667L13.0667 14ZM6.33333 9.33333C7.16667 9.33333 7.875 9.04167 8.45833 8.45833C9.04167 7.875 9.33333 7.16667 9.33333 6.33333C9.33333 5.5 9.04167 4.79167 8.45833 4.20833C7.875 3.625 7.16667 3.33333 6.33333 3.33333C5.5 3.33333 4.79167 3.625 4.20833 4.20833C3.625 4.79167 3.33333 5.5 3.33333 6.33333C3.33333 7.16667 3.625 7.875 4.20833 8.45833C4.79167 9.04167 5.5 9.33333 6.33333 9.33333Z" fill="currentColor"/>
  </symbol>

  <!-- Pin -->
  <symbol id="pin" viewBox="0 0 16 16" fill="none">
    <path d="M7.99967 6.66634C8.70692 6.66634 9.3852 6.38539 9.88529 5.88529C10.3854 5.3852 10.6663 4.70692 10.6663 3.99967C10.6663 3.29243 10.3854 2.61415 9.88529 2.11406C9.3852 1.61396 8.70692 1.33301 7.99967 1.33301C7.29243 1.33301 6.61415 1.61396 6.11406 2.11406C5.61396 2.61415 5.33301 3.29243 5.33301 3.99967C5.33301 4.70692 5.61396 5.3852 6.11406 5.88529C6.61415 6.38539 7.29243 6.66634 7.99967 6.66634ZM7.99967 6.66634V14.6663" stroke="currentColor" stroke-width="2" stroke-linecap="round"/>
  </symbol>

  <!-- Check -->
  <symbol id="check" viewBox="0 0 16 16" fill="none">
    <path d="M6.36641 12.0001L2.56641 8.20007L3.51641 7.25007L6.36641 10.1001L12.4831 3.9834L13.4331 4.9334L6.36641 12.0001Z" fill="currentColor"/>
  </symbol>
</svg>
